<svg width="848" height="220" viewBox="0 0 848 220" xmlns="http://www.w3.org/2000/svg"><rect width="848" height="220" rx="16" fill="#f9fafb" stroke="#e5e7eb" stroke-width="1"/><text x="424" y="13" font-family="-apple-system,BlinkMacSystemFont,'Segoe UI',system-ui,sans-serif" font-size="10" font-weight="700" fill="#94a3b8" text-anchor="middle" letter-spacing="0.1em">GPT VS CLAUDE VS GEMINI: BY THE NUMBERS</text><line x1="217" y1="20" x2="217" y2="200" stroke="#e5e7eb" stroke-width="1"/><line x1="424" y1="20" x2="424" y2="200" stroke="#e5e7eb" stroke-width="1"/><line x1="631" y1="20" x2="631" y2="200" stroke="#e5e7eb" stroke-width="1"/><text x="113" y="30" font-family="-apple-system,BlinkMacSystemFont,'Segoe UI',system-ui,sans-serif" font-size="26" font-weight="900" fill="#6366f1" text-anchor="middle">81%</text><text x="113" y="50" font-family="-apple-system,BlinkMacSystemFont,'Segoe UI',system-ui,sans-serif" font-size="11" font-weight="600" fill="#374151" text-anchor="middle">Fortune 500 Adoption</text><text x="113" y="66" font-family="-apple-system,BlinkMacSystemFont,'Segoe UI',system-ui,sans-serif" font-size="9" fill="#9ca3af" text-anchor="middle">ChatGPT within months of launch</text><rect x="40" y="80" width="12" height="12" rx="2" fill="#6366f1" opacity="1"/><rect x="55" y="80" width="12" height="12" rx="2" fill="#6366f1" opacity="1"/><rect x="70" y="80" width="12" height="12" rx="2" fill="#6366f1" opacity="1"/><rect x="85" y="80" width="12" height="12" rx="2" fill="#6366f1" opacity="1"/><rect x="100" y="80" width="12" height="12" rx="2" fill="#6366f1" opacity="1"/><rect x="115" y="80" width="12" height="12" rx="2" fill="#6366f1" opacity="1"/><rect x="130" y="80" width="12" height="12" rx="2" fill="#6366f1" opacity="1"/><rect x="145" y="80" width="12" height="12" rx="2" fill="#6366f1" opacity="1"/><rect x="160" y="80" width="12" height="12" rx="2" fill="#6366f1" opacity="1"/><rect x="175" y="80" width="12" height="12" rx="2" fill="#6366f1" opacity="1"/><rect x="40" y="95" width="12" height="12" rx="2" fill="#6366f1" opacity="1"/><rect x="55" y="95" width="12" height="12" rx="2" fill="#6366f1" opacity="1"/><rect x="70" y="95" width="12" height="12" rx="2" fill="#6366f1" opacity="1"/><rect x="85" y="95" width="12" height="12" rx="2" fill="#6366f1" opacity="1"/><rect x="100" y="95" width="12" height="12" rx="2" fill="#6366f1" opacity="1"/><rect x="115" y="95" width="12" height="12" rx="2" fill="#6366f1" opacity="1"/><rect x="130" y="95" width="12" height="12" rx="2" fill="#6366f1" opacity="1"/><rect x="145" y="95" width="12" height="12" rx="2" fill="#6366f1" opacity="1"/><rect x="160" y="95" width="12" height="12" rx="2" fill="#6366f1" opacity="1"/><rect x="175" y="95" width="12" height="12" rx="2" fill="#6366f1" opacity="1"/><rect x="40" y="110" width="12" height="12" rx="2" fill="#6366f1" opacity="1"/><rect x="55" y="110" width="12" height="12" rx="2" fill="#6366f1" opacity="1"/><rect x="70" y="110" width="12" height="12" rx="2" fill="#6366f1" opacity="1"/><rect x="85" y="110" width="12" height="12" rx="2" fill="#6366f1" opacity="1"/><rect x="100" y="110" width="12" height="12" rx="2" fill="#6366f1" opacity="1"/><rect x="115" y="110" width="12" height="12" rx="2" fill="#6366f1" opacity="1"/><rect x="130" y="110" width="12" height="12" rx="2" fill="#6366f1" opacity="1"/><rect x="145" y="110" width="12" height="12" rx="2" fill="#6366f1" opacity="1"/><rect x="160" y="110" width="12" height="12" rx="2" fill="#6366f1" opacity="1"/><rect x="175" y="110" width="12" height="12" rx="2" fill="#6366f1" opacity="1"/><rect x="40" y="125" width="12" height="12" rx="2" fill="#6366f1" opacity="1"/><rect x="55" y="125" width="12" height="12" rx="2" fill="#6366f1" opacity="1"/><rect x="70" y="125" width="12" height="12" rx="2" fill="#6366f1" opacity="1"/><rect x="85" y="125" width="12" height="12" rx="2" fill="#6366f1" opacity="1"/><rect x="100" y="125" width="12" height="12" rx="2" fill="#6366f1" opacity="1"/><rect x="115" y="125" width="12" height="12" rx="2" fill="#6366f1" opacity="1"/><rect x="130" y="125" width="12" height="12" rx="2" fill="#6366f1" opacity="1"/><rect x="145" y="125" width="12" height="12" rx="2" fill="#6366f1" opacity="1"/><rect x="160" y="125" width="12" height="12" rx="2" fill="#6366f1" opacity="1"/><rect x="175" y="125" width="12" height="12" rx="2" fill="#6366f1" opacity="1"/><rect x="40" y="140" width="12" height="12" rx="2" fill="#e5e7eb" opacity="0.5"/><rect x="55" y="140" width="12" height="12" rx="2" fill="#e5e7eb" opacity="0.5"/><rect x="70" y="140" width="12" height="12" rx="2" fill="#e5e7eb" opacity="0.5"/><rect x="85" y="140" width="12" height="12" rx="2" fill="#e5e7eb" opacity="0.5"/><rect x="100" y="140" width="12" height="12" rx="2" fill="#e5e7eb" opacity="0.5"/><rect x="115" y="140" width="12" height="12" rx="2" fill="#e5e7eb" opacity="0.5"/><rect x="130" y="140" width="12" height="12" rx="2" fill="#e5e7eb" opacity="0.5"/><rect x="145" y="140" width="12" height="12" rx="2" fill="#e5e7eb" opacity="0.5"/><rect x="160" y="140" width="12" height="12" rx="2" fill="#e5e7eb" opacity="0.5"/><rect x="175" y="140" width="12" height="12" rx="2" fill="#e5e7eb" opacity="0.5"/><text x="113" y="210" font-family="-apple-system,BlinkMacSystemFont,'Segoe UI',system-ui,sans-serif" font-size="9" fill="#a5b4fc" text-anchor="middle" font-weight="600">81% filled</text><text x="320" y="30" font-family="-apple-system,BlinkMacSystemFont,'Segoe UI',system-ui,sans-serif" font-size="26" font-weight="900" fill="#8b5cf6" text-anchor="middle">72.5%</text><text x="320" y="50" font-family="-apple-system,BlinkMacSystemFont,'Segoe UI',system-ui,sans-serif" font-size="11" font-weight="600" fill="#374151" text-anchor="middle">Claude SWE-Bench Score</text><text x="320" y="66" font-family="-apple-system,BlinkMacSystemFont,'Segoe UI',system-ui,sans-serif" font-size="9" fill="#9ca3af" text-anchor="middle">Top coding benchmark 2025</text><rect x="247" y="80" width="12" height="12" rx="2" fill="#8b5cf6" opacity="1"/><rect x="262" y="80" width="12" height="12" rx="2" fill="#8b5cf6" opacity="1"/><rect x="277" y="80" width="12" height="12" rx="2" fill="#8b5cf6" opacity="1"/><rect x="292" y="80" width="12" height="12" rx="2" fill="#8b5cf6" opacity="1"/><rect x="307" y="80" width="12" height="12" rx="2" fill="#8b5cf6" opacity="1"/><rect x="322" y="80" width="12" height="12" rx="2" fill="#8b5cf6" opacity="1"/><rect x="337" y="80" width="12" height="12" rx="2" fill="#8b5cf6" opacity="1"/><rect x="352" y="80" width="12" height="12" rx="2" fill="#8b5cf6" opacity="1"/><rect x="367" y="80" width="12" height="12" rx="2" fill="#8b5cf6" opacity="1"/><rect x="382" y="80" width="12" height="12" rx="2" fill="#8b5cf6" opacity="1"/><rect x="247" y="95" width="12" height="12" rx="2" fill="#8b5cf6" opacity="1"/><rect x="262" y="95" width="12" height="12" rx="2" fill="#8b5cf6" opacity="1"/><rect x="277" y="95" width="12" height="12" rx="2" fill="#8b5cf6" opacity="1"/><rect x="292" y="95" width="12" height="12" rx="2" fill="#8b5cf6" opacity="1"/><rect x="307" y="95" width="12" height="12" rx="2" fill="#8b5cf6" opacity="1"/><rect x="322" y="95" width="12" height="12" rx="2" fill="#8b5cf6" opacity="1"/><rect x="337" y="95" width="12" height="12" rx="2" fill="#8b5cf6" opacity="1"/><rect x="352" y="95" width="12" height="12" rx="2" fill="#8b5cf6" opacity="1"/><rect x="367" y="95" width="12" height="12" rx="2" fill="#8b5cf6" opacity="1"/><rect x="382" y="95" width="12" height="12" rx="2" fill="#8b5cf6" opacity="1"/><rect x="247" y="110" width="12" height="12" rx="2" fill="#8b5cf6" opacity="1"/><rect x="262" y="110" width="12" height="12" rx="2" fill="#8b5cf6" opacity="1"/><rect x="277" y="110" width="12" height="12" rx="2" fill="#8b5cf6" opacity="1"/><rect x="292" y="110" width="12" height="12" rx="2" fill="#8b5cf6" opacity="1"/><rect x="307" y="110" width="12" height="12" rx="2" fill="#8b5cf6" opacity="1"/><rect x="322" y="110" width="12" height="12" rx="2" fill="#8b5cf6" opacity="1"/><rect x="337" y="110" width="12" height="12" rx="2" fill="#8b5cf6" opacity="1"/><rect x="352" y="110" width="12" height="12" rx="2" fill="#8b5cf6" opacity="1"/><rect x="367" y="110" width="12" height="12" rx="2" fill="#8b5cf6" opacity="1"/><rect x="382" y="110" width="12" height="12" rx="2" fill="#8b5cf6" opacity="1"/><rect x="247" y="125" width="12" height="12" rx="2" fill="#8b5cf6" opacity="1"/><rect x="262" y="125" width="12" height="12" rx="2" fill="#8b5cf6" opacity="1"/><rect x="277" y="125" width="12" height="12" rx="2" fill="#8b5cf6" opacity="1"/><rect x="292" y="125" width="12" height="12" rx="2" fill="#8b5cf6" opacity="1"/><rect x="307" y="125" width="12" height="12" rx="2" fill="#8b5cf6" opacity="1"/><rect x="322" y="125" width="12" height="12" rx="2" fill="#8b5cf6" opacity="1"/><rect x="337" y="125" width="12" height="12" rx="2" fill="#e5e7eb" opacity="0.5"/><rect x="352" y="125" width="12" height="12" rx="2" fill="#e5e7eb" opacity="0.5"/><rect x="367" y="125" width="12" height="12" rx="2" fill="#e5e7eb" opacity="0.5"/><rect x="382" y="125" width="12" height="12" rx="2" fill="#e5e7eb" opacity="0.5"/><rect x="247" y="140" width="12" height="12" rx="2" fill="#e5e7eb" opacity="0.5"/><rect x="262" y="140" width="12" height="12" rx="2" fill="#e5e7eb" opacity="0.5"/><rect x="277" y="140" width="12" height="12" rx="2" fill="#e5e7eb" opacity="0.5"/><rect x="292" y="140" width="12" height="12" rx="2" fill="#e5e7eb" opacity="0.5"/><rect x="307" y="140" width="12" height="12" rx="2" fill="#e5e7eb" opacity="0.5"/><rect x="322" y="140" width="12" height="12" rx="2" fill="#e5e7eb" opacity="0.5"/><rect x="337" y="140" width="12" height="12" rx="2" fill="#e5e7eb" opacity="0.5"/><rect x="352" y="140" width="12" height="12" rx="2" fill="#e5e7eb" opacity="0.5"/><rect x="367" y="140" width="12" height="12" rx="2" fill="#e5e7eb" opacity="0.5"/><rect x="382" y="140" width="12" height="12" rx="2" fill="#e5e7eb" opacity="0.5"/><text x="320" y="210" font-family="-apple-system,BlinkMacSystemFont,'Segoe UI',system-ui,sans-serif" font-size="9" fill="#c4b5fd" text-anchor="middle" font-weight="600">72% filled</text><text x="527" y="30" font-family="-apple-system,BlinkMacSystemFont,'Segoe UI',system-ui,sans-serif" font-size="26" font-weight="900" fill="#06b6d4" text-anchor="middle">1M</text><text x="527" y="50" font-family="-apple-system,BlinkMacSystemFont,'Segoe UI',system-ui,sans-serif" font-size="11" font-weight="600" fill="#374151" text-anchor="middle">Gemini Context Window</text><text x="527" y="66" font-family="-apple-system,BlinkMacSystemFont,'Segoe UI',system-ui,sans-serif" font-size="9" fill="#9ca3af" text-anchor="middle">tokens — longest of any model</text><rect x="454" y="80" width="12" height="12" rx="2" fill="#06b6d4" opacity="1"/><rect x="469" y="80" width="12" height="12" rx="2" fill="#06b6d4" opacity="1"/><rect x="484" y="80" width="12" height="12" rx="2" fill="#06b6d4" opacity="1"/><rect x="499" y="80" width="12" height="12" rx="2" fill="#06b6d4" opacity="1"/><rect x="514" y="80" width="12" height="12" rx="2" fill="#06b6d4" opacity="1"/><rect x="529" y="80" width="12" height="12" rx="2" fill="#06b6d4" opacity="1"/><rect x="544" y="80" width="12" height="12" rx="2" fill="#06b6d4" opacity="1"/><rect x="559" y="80" width="12" height="12" rx="2" fill="#06b6d4" opacity="1"/><rect x="574" y="80" width="12" height="12" rx="2" fill="#06b6d4" opacity="1"/><rect x="589" y="80" width="12" height="12" rx="2" fill="#06b6d4" opacity="1"/><rect x="454" y="95" width="12" height="12" rx="2" fill="#06b6d4" opacity="1"/><rect x="469" y="95" width="12" height="12" rx="2" fill="#06b6d4" opacity="1"/><rect x="484" y="95" width="12" height="12" rx="2" fill="#06b6d4" opacity="1"/><rect x="499" y="95" width="12" height="12" rx="2" fill="#06b6d4" opacity="1"/><rect x="514" y="95" width="12" height="12" rx="2" fill="#06b6d4" opacity="1"/><rect x="529" y="95" width="12" height="12" rx="2" fill="#06b6d4" opacity="1"/><rect x="544" y="95" width="12" height="12" rx="2" fill="#06b6d4" opacity="1"/><rect x="559" y="95" width="12" height="12" rx="2" fill="#06b6d4" opacity="1"/><rect x="574" y="95" width="12" height="12" rx="2" fill="#06b6d4" opacity="1"/><rect x="589" y="95" width="12" height="12" rx="2" fill="#06b6d4" opacity="1"/><rect x="454" y="110" width="12" height="12" rx="2" fill="#06b6d4" opacity="1"/><rect x="469" y="110" width="12" height="12" rx="2" fill="#06b6d4" opacity="1"/><rect x="484" y="110" width="12" height="12" rx="2" fill="#06b6d4" opacity="1"/><rect x="499" y="110" width="12" height="12" rx="2" fill="#06b6d4" opacity="1"/><rect x="514" y="110" width="12" height="12" rx="2" fill="#06b6d4" opacity="1"/><rect x="529" y="110" width="12" height="12" rx="2" fill="#06b6d4" opacity="1"/><rect x="544" y="110" width="12" height="12" rx="2" fill="#06b6d4" opacity="1"/><rect x="559" y="110" width="12" height="12" rx="2" fill="#06b6d4" opacity="1"/><rect x="574" y="110" width="12" height="12" rx="2" fill="#06b6d4" opacity="1"/><rect x="589" y="110" width="12" height="12" rx="2" fill="#06b6d4" opacity="1"/><rect x="454" y="125" width="12" height="12" rx="2" fill="#06b6d4" opacity="1"/><rect x="469" y="125" width="12" height="12" rx="2" fill="#06b6d4" opacity="1"/><rect x="484" y="125" width="12" height="12" rx="2" fill="#06b6d4" opacity="1"/><rect x="499" y="125" width="12" height="12" rx="2" fill="#06b6d4" opacity="1"/><rect x="514" y="125" width="12" height="12" rx="2" fill="#06b6d4" opacity="1"/><rect x="529" y="125" width="12" height="12" rx="2" fill="#06b6d4" opacity="1"/><rect x="544" y="125" width="12" height="12" rx="2" fill="#06b6d4" opacity="1"/><rect x="559" y="125" width="12" height="12" rx="2" fill="#06b6d4" opacity="1"/><rect x="574" y="125" width="12" height="12" rx="2" fill="#06b6d4" opacity="1"/><rect x="589" y="125" width="12" height="12" rx="2" fill="#06b6d4" opacity="1"/><rect x="454" y="140" width="12" height="12" rx="2" fill="#06b6d4" opacity="1"/><rect x="469" y="140" width="12" height="12" rx="2" fill="#06b6d4" opacity="1"/><rect x="484" y="140" width="12" height="12" rx="2" fill="#06b6d4" opacity="1"/><rect x="499" y="140" width="12" height="12" rx="2" fill="#06b6d4" opacity="1"/><rect x="514" y="140" width="12" height="12" rx="2" fill="#06b6d4" opacity="1"/><rect x="529" y="140" width="12" height="12" rx="2" fill="#06b6d4" opacity="1"/><rect x="544" y="140" width="12" height="12" rx="2" fill="#e5e7eb" opacity="0.5"/><rect x="559" y="140" width="12" height="12" rx="2" fill="#e5e7eb" opacity="0.5"/><rect x="574" y="140" width="12" height="12" rx="2" fill="#e5e7eb" opacity="0.5"/><rect x="589" y="140" width="12" height="12" rx="2" fill="#e5e7eb" opacity="0.5"/><text x="527" y="210" font-family="-apple-system,BlinkMacSystemFont,'Segoe UI',system-ui,sans-serif" font-size="9" fill="#67e8f9" text-anchor="middle" font-weight="600">92% filled</text><text x="734" y="30" font-family="-apple-system,BlinkMacSystemFont,'Segoe UI',system-ui,sans-serif" font-size="26" font-weight="900" fill="#10b981" text-anchor="middle">3+</text><text x="734" y="50" font-family="-apple-system,BlinkMacSystemFont,'Segoe UI',system-ui,sans-serif" font-size="11" font-weight="600" fill="#374151" text-anchor="middle">Model Families</text><text x="734" y="66" font-family="-apple-system,BlinkMacSystemFont,'Segoe UI',system-ui,sans-serif" font-size="9" fill="#9ca3af" text-anchor="middle">used by 81% of Global 2000 firms</text><rect x="661" y="80" width="12" height="12" rx="2" fill="#10b981" opacity="1"/><rect x="676" y="80" width="12" height="12" rx="2" fill="#10b981" opacity="1"/><rect x="691" y="80" width="12" height="12" rx="2" fill="#10b981" opacity="1"/><rect x="706" y="80" width="12" height="12" rx="2" fill="#10b981" opacity="1"/><rect x="721" y="80" width="12" height="12" rx="2" fill="#10b981" opacity="1"/><rect x="736" y="80" width="12" height="12" rx="2" fill="#10b981" opacity="1"/><rect x="751" y="80" width="12" height="12" rx="2" fill="#10b981" opacity="1"/><rect x="766" y="80" width="12" height="12" rx="2" fill="#10b981" opacity="1"/><rect x="781" y="80" width="12" height="12" rx="2" fill="#10b981" opacity="1"/><rect x="796" y="80" width="12" height="12" rx="2" fill="#10b981" opacity="1"/><rect x="661" y="95" width="12" height="12" rx="2" fill="#10b981" opacity="1"/><rect x="676" y="95" width="12" height="12" rx="2" fill="#10b981" opacity="1"/><rect x="691" y="95" width="12" height="12" rx="2" fill="#10b981" opacity="1"/><rect x="706" y="95" width="12" height="12" rx="2" fill="#10b981" opacity="1"/><rect x="721" y="95" width="12" height="12" rx="2" fill="#10b981" opacity="1"/><rect x="736" y="95" width="12" height="12" rx="2" fill="#10b981" opacity="1"/><rect x="751" y="95" width="12" height="12" rx="2" fill="#10b981" opacity="1"/><rect x="766" y="95" width="12" height="12" rx="2" fill="#10b981" opacity="1"/><rect x="781" y="95" width="12" height="12" rx="2" fill="#10b981" opacity="1"/><rect x="796" y="95" width="12" height="12" rx="2" fill="#10b981" opacity="1"/><rect x="661" y="110" width="12" height="12" rx="2" fill="#10b981" opacity="1"/><rect x="676" y="110" width="12" height="12" rx="2" fill="#10b981" opacity="1"/><rect x="691" y="110" width="12" height="12" rx="2" fill="#10b981" opacity="1"/><rect x="706" y="110" width="12" height="12" rx="2" fill="#10b981" opacity="1"/><rect x="721" y="110" width="12" height="12" rx="2" fill="#10b981" opacity="1"/><rect x="736" y="110" width="12" height="12" rx="2" fill="#10b981" opacity="1"/><rect x="751" y="110" width="12" height="12" rx="2" fill="#10b981" opacity="1"/><rect x="766" y="110" width="12" height="12" rx="2" fill="#10b981" opacity="1"/><rect x="781" y="110" width="12" height="12" rx="2" fill="#10b981" opacity="1"/><rect x="796" y="110" width="12" height="12" rx="2" fill="#10b981" opacity="1"/><rect x="661" y="125" width="12" height="12" rx="2" fill="#e5e7eb" opacity="0.5"/><rect x="676" y="125" width="12" height="12" rx="2" fill="#e5e7eb" opacity="0.5"/><rect x="691" y="125" width="12" height="12" rx="2" fill="#e5e7eb" opacity="0.5"/><rect x="706" y="125" width="12" height="12" rx="2" fill="#e5e7eb" opacity="0.5"/><rect x="721" y="125" width="12" height="12" rx="2" fill="#e5e7eb" opacity="0.5"/><rect x="736" y="125" width="12" height="12" rx="2" fill="#e5e7eb" opacity="0.5"/><rect x="751" y="125" width="12" height="12" rx="2" fill="#e5e7eb" opacity="0.5"/><rect x="766" y="125" width="12" height="12" rx="2" fill="#e5e7eb" opacity="0.5"/><rect x="781" y="125" width="12" height="12" rx="2" fill="#e5e7eb" opacity="0.5"/><rect x="796" y="125" width="12" height="12" rx="2" fill="#e5e7eb" opacity="0.5"/><rect x="661" y="140" width="12" height="12" rx="2" fill="#e5e7eb" opacity="0.5"/><rect x="676" y="140" width="12" height="12" rx="2" fill="#e5e7eb" opacity="0.5"/><rect x="691" y="140" width="12" height="12" rx="2" fill="#e5e7eb" opacity="0.5"/><rect x="706" y="140" width="12" height="12" rx="2" fill="#e5e7eb" opacity="0.5"/><rect x="721" y="140" width="12" height="12" rx="2" fill="#e5e7eb" opacity="0.5"/><rect x="736" y="140" width="12" height="12" rx="2" fill="#e5e7eb" opacity="0.5"/><rect x="751" y="140" width="12" height="12" rx="2" fill="#e5e7eb" opacity="0.5"/><rect x="766" y="140" width="12" height="12" rx="2" fill="#e5e7eb" opacity="0.5"/><rect x="781" y="140" width="12" height="12" rx="2" fill="#e5e7eb" opacity="0.5"/><rect x="796" y="140" width="12" height="12" rx="2" fill="#e5e7eb" opacity="0.5"/><text x="734" y="210" font-family="-apple-system,BlinkMacSystemFont,'Segoe UI',system-ui,sans-serif" font-size="9" fill="#6ee7b7" text-anchor="middle" font-weight="600">60% filled</text></svg>