<svg width="1200" height="630" viewBox="0 0 1200 630" xmlns="http://www.w3.org/2000/svg">
  <defs>
    <linearGradient id="bg" x1="0%" y1="0%" x2="100%" y2="100%">
      <stop offset="0%" stop-color="#1e1b4b"/><stop offset="50%" stop-color="#2d2a7a"/><stop offset="100%" stop-color="#3730a3"/>
    </linearGradient>
    <linearGradient id="accent-h" x1="0%" y1="0%" x2="100%" y2="0%">
      <stop offset="0%" stop-color="#818cf8"/><stop offset="100%" stop-color="#a78bfa"/>
    </linearGradient>
    <linearGradient id="left-bar" x1="0%" y1="0%" x2="0%" y2="100%">
      <stop offset="0%" stop-color="#a78bfa"/><stop offset="100%" stop-color="#6366f1"/>
    </linearGradient>
  </defs>

  <!-- Background -->
  <rect width="1200" height="630" fill="url(#bg)"/>

  <!-- Faint grid -->
  <g opacity="0.035" stroke="white" stroke-width="1"><line x1="0" y1="0" x2="0" y2="630"/><line x1="80" y1="0" x2="80" y2="630"/><line x1="160" y1="0" x2="160" y2="630"/><line x1="240" y1="0" x2="240" y2="630"/><line x1="320" y1="0" x2="320" y2="630"/><line x1="400" y1="0" x2="400" y2="630"/><line x1="480" y1="0" x2="480" y2="630"/><line x1="560" y1="0" x2="560" y2="630"/><line x1="640" y1="0" x2="640" y2="630"/><line x1="720" y1="0" x2="720" y2="630"/><line x1="800" y1="0" x2="800" y2="630"/><line x1="880" y1="0" x2="880" y2="630"/><line x1="960" y1="0" x2="960" y2="630"/><line x1="1040" y1="0" x2="1040" y2="630"/><line x1="1120" y1="0" x2="1120" y2="630"/><line x1="1200" y1="0" x2="1200" y2="630"/><line x1="0" y1="0" x2="1200" y2="0"/><line x1="0" y1="80" x2="1200" y2="80"/><line x1="0" y1="160" x2="1200" y2="160"/><line x1="0" y1="240" x2="1200" y2="240"/><line x1="0" y1="320" x2="1200" y2="320"/><line x1="0" y1="400" x2="1200" y2="400"/><line x1="0" y1="480" x2="1200" y2="480"/><line x1="0" y1="560" x2="1200" y2="560"/></g>

  <!-- Decorative motif (hex) -->
  <polygon points="1184.2,26.0 1184.2,54.0 1160.0,68.0 1135.8,54.0 1135.8,26.0 1160.0,12.0" fill="none" stroke="white" stroke-width="1" opacity="0.06"/><polygon points="1135.8,26.0 1135.8,54.0 1111.5,68.0 1087.3,54.0 1087.3,26.0 1111.5,12.0" fill="none" stroke="white" stroke-width="1" opacity="0.07"/><polygon points="1087.3,26.0 1087.3,54.0 1063.0,68.0 1038.8,54.0 1038.8,26.0 1063.0,12.0" fill="none" stroke="white" stroke-width="1" opacity="0.08"/><polygon points="1038.8,26.0 1038.8,54.0 1014.5,68.0 990.3,54.0 990.3,26.0 1014.5,12.0" fill="none" stroke="white" stroke-width="1" opacity="0.10"/><polygon points="990.3,26.0 990.3,54.0 966.0,68.0 941.8,54.0 941.8,26.0 966.0,12.0" fill="none" stroke="white" stroke-width="1" opacity="0.11"/><polygon points="941.8,26.0 941.8,54.0 917.5,68.0 893.3,54.0 893.3,26.0 917.5,12.0" fill="none" stroke="white" stroke-width="1" opacity="0.12"/><polygon points="1160.0,68.0 1160.0,96.0 1135.8,110.0 1111.5,96.0 1111.5,68.0 1135.8,54.0" fill="none" stroke="white" stroke-width="1" opacity="0.06"/><polygon points="1111.5,68.0 1111.5,96.0 1087.3,110.0 1063.0,96.0 1063.0,68.0 1087.3,54.0" fill="none" stroke="white" stroke-width="1" opacity="0.07"/><polygon points="1063.0,68.0 1063.0,96.0 1038.8,110.0 1014.5,96.0 1014.5,68.0 1038.8,54.0" fill="none" stroke="white" stroke-width="1" opacity="0.08"/><polygon points="1014.5,68.0 1014.5,96.0 990.3,110.0 966.0,96.0 966.0,68.0 990.3,54.0" fill="none" stroke="white" stroke-width="1" opacity="0.10"/><polygon points="966.0,68.0 966.0,96.0 941.8,110.0 917.5,96.0 917.5,68.0 941.8,54.0" fill="none" stroke="white" stroke-width="1" opacity="0.11"/><polygon points="917.5,68.0 917.5,96.0 893.3,110.0 869.0,96.0 869.0,68.0 893.3,54.0" fill="none" stroke="white" stroke-width="1" opacity="0.12"/><polygon points="1184.2,110.0 1184.2,138.0 1160.0,152.0 1135.8,138.0 1135.8,110.0 1160.0,96.0" fill="none" stroke="white" stroke-width="1" opacity="0.06"/><polygon points="1135.8,110.0 1135.8,138.0 1111.5,152.0 1087.3,138.0 1087.3,110.0 1111.5,96.0" fill="none" stroke="white" stroke-width="1" opacity="0.07"/><polygon points="1087.3,110.0 1087.3,138.0 1063.0,152.0 1038.8,138.0 1038.8,110.0 1063.0,96.0" fill="none" stroke="white" stroke-width="1" opacity="0.08"/><polygon points="1038.8,110.0 1038.8,138.0 1014.5,152.0 990.3,138.0 990.3,110.0 1014.5,96.0" fill="none" stroke="white" stroke-width="1" opacity="0.10"/><polygon points="990.3,110.0 990.3,138.0 966.0,152.0 941.8,138.0 941.8,110.0 966.0,96.0" fill="none" stroke="white" stroke-width="1" opacity="0.11"/><polygon points="941.8,110.0 941.8,138.0 917.5,152.0 893.3,138.0 893.3,110.0 917.5,96.0" fill="none" stroke="white" stroke-width="1" opacity="0.12"/><polygon points="1160.0,152.0 1160.0,180.0 1135.8,194.0 1111.5,180.0 1111.5,152.0 1135.8,138.0" fill="none" stroke="white" stroke-width="1" opacity="0.06"/><polygon points="1111.5,152.0 1111.5,180.0 1087.3,194.0 1063.0,180.0 1063.0,152.0 1087.3,138.0" fill="none" stroke="white" stroke-width="1" opacity="0.07"/><polygon points="1063.0,152.0 1063.0,180.0 1038.8,194.0 1014.5,180.0 1014.5,152.0 1038.8,138.0" fill="none" stroke="white" stroke-width="1" opacity="0.08"/><polygon points="1014.5,152.0 1014.5,180.0 990.3,194.0 966.0,180.0 966.0,152.0 990.3,138.0" fill="none" stroke="white" stroke-width="1" opacity="0.10"/><polygon points="966.0,152.0 966.0,180.0 941.8,194.0 917.5,180.0 917.5,152.0 941.8,138.0" fill="none" stroke="white" stroke-width="1" opacity="0.11"/><polygon points="917.5,152.0 917.5,180.0 893.3,194.0 869.0,180.0 869.0,152.0 893.3,138.0" fill="none" stroke="white" stroke-width="1" opacity="0.12"/><polygon points="1184.2,194.0 1184.2,222.0 1160.0,236.0 1135.8,222.0 1135.8,194.0 1160.0,180.0" fill="none" stroke="white" stroke-width="1" opacity="0.06"/><polygon points="1135.8,194.0 1135.8,222.0 1111.5,236.0 1087.3,222.0 1087.3,194.0 1111.5,180.0" fill="none" stroke="white" stroke-width="1" opacity="0.07"/><polygon points="1087.3,194.0 1087.3,222.0 1063.0,236.0 1038.8,222.0 1038.8,194.0 1063.0,180.0" fill="none" stroke="white" stroke-width="1" opacity="0.08"/><polygon points="1038.8,194.0 1038.8,222.0 1014.5,236.0 990.3,222.0 990.3,194.0 1014.5,180.0" fill="none" stroke="white" stroke-width="1" opacity="0.10"/><polygon points="990.3,194.0 990.3,222.0 966.0,236.0 941.8,222.0 941.8,194.0 966.0,180.0" fill="none" stroke="white" stroke-width="1" opacity="0.11"/><polygon points="941.8,194.0 941.8,222.0 917.5,236.0 893.3,222.0 893.3,194.0 917.5,180.0" fill="none" stroke="white" stroke-width="1" opacity="0.12"/><polygon points="1160.0,236.0 1160.0,264.0 1135.8,278.0 1111.5,264.0 1111.5,236.0 1135.8,222.0" fill="none" stroke="white" stroke-width="1" opacity="0.06"/><polygon points="1111.5,236.0 1111.5,264.0 1087.3,278.0 1063.0,264.0 1063.0,236.0 1087.3,222.0" fill="none" stroke="white" stroke-width="1" opacity="0.07"/><polygon points="1063.0,236.0 1063.0,264.0 1038.8,278.0 1014.5,264.0 1014.5,236.0 1038.8,222.0" fill="none" stroke="white" stroke-width="1" opacity="0.08"/><polygon points="1014.5,236.0 1014.5,264.0 990.3,278.0 966.0,264.0 966.0,236.0 990.3,222.0" fill="none" stroke="white" stroke-width="1" opacity="0.10"/><polygon points="966.0,236.0 966.0,264.0 941.8,278.0 917.5,264.0 917.5,236.0 941.8,222.0" fill="none" stroke="white" stroke-width="1" opacity="0.11"/><polygon points="917.5,236.0 917.5,264.0 893.3,278.0 869.0,264.0 869.0,236.0 893.3,222.0" fill="none" stroke="white" stroke-width="1" opacity="0.12"/><polygon points="1184.2,278.0 1184.2,306.0 1160.0,320.0 1135.8,306.0 1135.8,278.0 1160.0,264.0" fill="none" stroke="white" stroke-width="1" opacity="0.06"/><polygon points="1135.8,278.0 1135.8,306.0 1111.5,320.0 1087.3,306.0 1087.3,278.0 1111.5,264.0" fill="none" stroke="white" stroke-width="1" opacity="0.07"/><polygon points="1087.3,278.0 1087.3,306.0 1063.0,320.0 1038.8,306.0 1038.8,278.0 1063.0,264.0" fill="none" stroke="white" stroke-width="1" opacity="0.08"/><polygon points="1038.8,278.0 1038.8,306.0 1014.5,320.0 990.3,306.0 990.3,278.0 1014.5,264.0" fill="none" stroke="white" stroke-width="1" opacity="0.10"/><polygon points="990.3,278.0 990.3,306.0 966.0,320.0 941.8,306.0 941.8,278.0 966.0,264.0" fill="none" stroke="white" stroke-width="1" opacity="0.11"/><polygon points="941.8,278.0 941.8,306.0 917.5,320.0 893.3,306.0 893.3,278.0 917.5,264.0" fill="none" stroke="white" stroke-width="1" opacity="0.12"/>

  <!-- Bottom-left accent circle -->
  <circle cx="50" cy="580" r="130" fill="none" stroke="white" stroke-width="1" opacity="0.05"/>
  <circle cx="50" cy="580" r="65"  fill="none" stroke="white" stroke-width="1" opacity="0.07"/>

  <!-- Left accent bar -->
  <rect x="0" y="0" width="7" height="630" fill="url(#left-bar)"/>

  <!-- Title -->
  
  <text x="90" y="238" font-family="-apple-system,BlinkMacSystemFont,'Segoe UI',system-ui,sans-serif" font-size="56" font-weight="800" fill="white" opacity="0.95">The Models Behind the Magic:</text>
  <text x="90" y="312" font-family="-apple-system,BlinkMacSystemFont,'Segoe UI',system-ui,sans-serif" font-size="56" font-weight="800" fill="white" opacity="0.95">What Actually Separates GPT,</text>
  <text x="90" y="386" font-family="-apple-system,BlinkMacSystemFont,'Segoe UI',system-ui,sans-serif" font-size="56" font-weight="800" fill="white" opacity="0.95">Claude, and Gemini</text>

  <!-- Accent divider -->
  <rect x="90" y="468" width="90" height="4" rx="2" fill="url(#accent-h)"/>

  <!-- Tags -->
  <text x="90" y="520"
    font-family="-apple-system,BlinkMacSystemFont,'Segoe UI',system-ui,sans-serif"
    font-size="21" font-weight="600" fill="#a5b4fc" letter-spacing="2.5" opacity="0.9">
    AI  ·  LLM  ·  GPT  ·  CLAUDE
  </text>

  <!-- Blog branding -->
  <text x="1140" y="596"
    font-family="-apple-system,BlinkMacSystemFont,'Segoe UI',system-ui,sans-serif"
    font-size="19" font-weight="700" fill="white" opacity="0.3"
    text-anchor="end" letter-spacing="1.5">
    SWAPNILSBLOG
  </text>
</svg>