<svg width="1200" height="630" viewBox="0 0 1200 630" xmlns="http://www.w3.org/2000/svg">
  <defs>
    <linearGradient id="bg" x1="0%" y1="0%" x2="100%" y2="100%">
      <stop offset="0%"   stop-color="#1e1b4b"/>
      <stop offset="50%"  stop-color="#2d2a7a"/>
      <stop offset="100%" stop-color="#3730a3"/>
    </linearGradient>
    <linearGradient id="accent-h" x1="0%" y1="0%" x2="100%" y2="0%">
      <stop offset="0%"   stop-color="#818cf8"/>
      <stop offset="100%" stop-color="#a78bfa"/>
    </linearGradient>
    <linearGradient id="left-bar" x1="0%" y1="0%" x2="0%" y2="100%">
      <stop offset="0%"   stop-color="#a78bfa"/>
      <stop offset="100%" stop-color="#6366f1"/>
    </linearGradient>
  </defs>

  <!-- Background -->
  <rect width="1200" height="630" fill="url(#bg)"/>

  <!-- Faint grid -->
  <g opacity="0.035" stroke="white" stroke-width="1"><line x1="0" y1="0" x2="0" y2="630"/><line x1="80" y1="0" x2="80" y2="630"/><line x1="160" y1="0" x2="160" y2="630"/><line x1="240" y1="0" x2="240" y2="630"/><line x1="320" y1="0" x2="320" y2="630"/><line x1="400" y1="0" x2="400" y2="630"/><line x1="480" y1="0" x2="480" y2="630"/><line x1="560" y1="0" x2="560" y2="630"/><line x1="640" y1="0" x2="640" y2="630"/><line x1="720" y1="0" x2="720" y2="630"/><line x1="800" y1="0" x2="800" y2="630"/><line x1="880" y1="0" x2="880" y2="630"/><line x1="960" y1="0" x2="960" y2="630"/><line x1="1040" y1="0" x2="1040" y2="630"/><line x1="1120" y1="0" x2="1120" y2="630"/><line x1="1200" y1="0" x2="1200" y2="630"/><line x1="0" y1="0" x2="1200" y2="0"/><line x1="0" y1="80" x2="1200" y2="80"/><line x1="0" y1="160" x2="1200" y2="160"/><line x1="0" y1="240" x2="1200" y2="240"/><line x1="0" y1="320" x2="1200" y2="320"/><line x1="0" y1="400" x2="1200" y2="400"/><line x1="0" y1="480" x2="1200" y2="480"/><line x1="0" y1="560" x2="1200" y2="560"/></g>

  <!-- Concentric rings -->
  <circle cx="1120" cy="80" r="230" fill="none" stroke="white" stroke-width="1.2" opacity="0.04"/><circle cx="1120" cy="80" r="170" fill="none" stroke="white" stroke-width="1.2" opacity="0.06"/><circle cx="1120" cy="80" r="110" fill="none" stroke="white" stroke-width="1.2" opacity="0.08"/><circle cx="1120" cy="80" r="55" fill="none" stroke="white" stroke-width="1.2" opacity="0.1"/><circle cx="1120" cy="80" r="20" fill="none" stroke="white" stroke-width="1.2" opacity="0.12"/>

  <!-- Dot grid -->
  <circle cx="1120" cy="46" r="2.5" fill="white" opacity="0.14"/><circle cx="1094" cy="46" r="2.5" fill="white" opacity="0.14"/><circle cx="1068" cy="46" r="2.5" fill="white" opacity="0.14"/><circle cx="1042" cy="46" r="2.5" fill="white" opacity="0.14"/><circle cx="1016" cy="46" r="2.5" fill="white" opacity="0.14"/><circle cx="990" cy="46" r="2.5" fill="white" opacity="0.14"/><circle cx="964" cy="46" r="2.5" fill="white" opacity="0.14"/><circle cx="938" cy="46" r="2.5" fill="white" opacity="0.14"/><circle cx="1120" cy="72" r="2.5" fill="white" opacity="0.14"/><circle cx="1094" cy="72" r="2.5" fill="white" opacity="0.14"/><circle cx="1068" cy="72" r="2.5" fill="white" opacity="0.14"/><circle cx="1042" cy="72" r="2.5" fill="white" opacity="0.14"/><circle cx="1016" cy="72" r="2.5" fill="white" opacity="0.14"/><circle cx="990" cy="72" r="2.5" fill="white" opacity="0.14"/><circle cx="964" cy="72" r="2.5" fill="white" opacity="0.14"/><circle cx="938" cy="72" r="2.5" fill="white" opacity="0.14"/><circle cx="1120" cy="98" r="2.5" fill="white" opacity="0.14"/><circle cx="1094" cy="98" r="2.5" fill="white" opacity="0.14"/><circle cx="1068" cy="98" r="2.5" fill="white" opacity="0.14"/><circle cx="1042" cy="98" r="2.5" fill="white" opacity="0.14"/><circle cx="1016" cy="98" r="2.5" fill="white" opacity="0.14"/><circle cx="990" cy="98" r="2.5" fill="white" opacity="0.14"/><circle cx="964" cy="98" r="2.5" fill="white" opacity="0.14"/><circle cx="938" cy="98" r="2.5" fill="white" opacity="0.14"/><circle cx="1120" cy="124" r="2.5" fill="white" opacity="0.14"/><circle cx="1094" cy="124" r="2.5" fill="white" opacity="0.14"/><circle cx="1068" cy="124" r="2.5" fill="white" opacity="0.14"/><circle cx="1042" cy="124" r="2.5" fill="white" opacity="0.14"/><circle cx="1016" cy="124" r="2.5" fill="white" opacity="0.14"/><circle cx="990" cy="124" r="2.5" fill="white" opacity="0.14"/><circle cx="964" cy="124" r="2.5" fill="white" opacity="0.14"/><circle cx="938" cy="124" r="2.5" fill="white" opacity="0.14"/><circle cx="1120" cy="150" r="2.5" fill="white" opacity="0.14"/><circle cx="1094" cy="150" r="2.5" fill="white" opacity="0.14"/><circle cx="1068" cy="150" r="2.5" fill="white" opacity="0.14"/><circle cx="1042" cy="150" r="2.5" fill="white" opacity="0.14"/><circle cx="1016" cy="150" r="2.5" fill="white" opacity="0.14"/><circle cx="990" cy="150" r="2.5" fill="white" opacity="0.14"/><circle cx="964" cy="150" r="2.5" fill="white" opacity="0.14"/><circle cx="938" cy="150" r="2.5" fill="white" opacity="0.14"/><circle cx="1120" cy="176" r="2.5" fill="white" opacity="0.14"/><circle cx="1094" cy="176" r="2.5" fill="white" opacity="0.14"/><circle cx="1068" cy="176" r="2.5" fill="white" opacity="0.14"/><circle cx="1042" cy="176" r="2.5" fill="white" opacity="0.14"/><circle cx="1016" cy="176" r="2.5" fill="white" opacity="0.14"/><circle cx="990" cy="176" r="2.5" fill="white" opacity="0.14"/><circle cx="964" cy="176" r="2.5" fill="white" opacity="0.14"/><circle cx="938" cy="176" r="2.5" fill="white" opacity="0.14"/>

  <!-- Bottom-left accent circle -->
  <circle cx="50" cy="580" r="130" fill="none" stroke="white" stroke-width="1" opacity="0.05"/>
  <circle cx="50" cy="580" r="65"  fill="none" stroke="white" stroke-width="1" opacity="0.07"/>

  <!-- Left accent bar -->
  <rect x="0" y="0" width="7" height="630" fill="url(#left-bar)"/>

  <!-- Title -->
  
  <text x="90" y="238" font-family="-apple-system,BlinkMacSystemFont,'Segoe UI',system-ui,sans-serif" font-size="56" font-weight="800" fill="white" opacity="0.95">What Are AI Agents and Why</text>
  <text x="90" y="312" font-family="-apple-system,BlinkMacSystemFont,'Segoe UI',system-ui,sans-serif" font-size="56" font-weight="800" fill="white" opacity="0.95">Everyone Is Suddenly</text>
  <text x="90" y="386" font-family="-apple-system,BlinkMacSystemFont,'Segoe UI',system-ui,sans-serif" font-size="56" font-weight="800" fill="white" opacity="0.95">Building Them</text>

  <!-- Accent divider -->
  <rect x="90" y="468" width="90" height="4" rx="2" fill="url(#accent-h)"/>

  <!-- Tags -->
  <text x="90" y="520"
    font-family="-apple-system,BlinkMacSystemFont,'Segoe UI',system-ui,sans-serif"
    font-size="21" font-weight="600" fill="#a5b4fc" letter-spacing="2.5" opacity="0.9">
    AI  ·  ML  ·  AGENTS
  </text>

  <!-- Blog branding -->
  <text x="1140" y="596"
    font-family="-apple-system,BlinkMacSystemFont,'Segoe UI',system-ui,sans-serif"
    font-size="19" font-weight="700" fill="white" opacity="0.3"
    text-anchor="end" letter-spacing="1.5">
    SWAPNILSBLOG
  </text>
</svg>